<svg xmlns="http://www.w3.org/2000/svg" xmlns:xlink="http://www.w3.org/1999/xlink" width="2000" zoomAndPan="magnify" viewBox="0 0 1500 1499.999933" height="2000" preserveAspectRatio="xMidYMid meet" version="1.0"><defs><clipPath id="21ef3859e2"><path d="M 675.839844 515 L 879.839844 515 L 879.839844 1110 L 675.839844 1110 Z M 675.839844 515 " clip-rule="nonzero"/></clipPath><clipPath id="1a2bd0a9e9"><path d="M 620.160156 390 L 824.160156 390 L 824.160156 985 L 620.160156 985 Z M 620.160156 390 " clip-rule="nonzero"/></clipPath></defs><g clip-path="url(#21ef3859e2)"><path fill="#4d1c9c" d="M 865.03125 826.773438 C 873.261719 820.1875 879.996094 823.425781 879.996094 833.964844 L 879.996094 935.542969 C 879.996094 946.082031 873.257812 960.085938 865.019531 966.660156 L 754.808594 1054.617188 C 746.570312 1061.195312 739.828125 1066.570312 739.824219 1066.570312 C 739.824219 1066.566406 733.089844 1071.949219 724.859375 1078.535156 L 690.871094 1105.722656 C 682.636719 1112.308594 675.902344 1109.070312 675.902344 1098.53125 L 675.902344 996.996094 C 675.902344 986.453125 682.640625 972.445312 690.878906 965.867188 L 803.792969 875.667969 C 812.027344 869.089844 818.773438 863.714844 818.78125 863.726562 C 818.792969 863.738281 825.535156 858.363281 833.765625 851.777344 Z M 827.996094 548.527344 C 819.765625 555.113281 806.285156 565.875 798.039062 572.441406 L 795.816406 574.210938 C 787.574219 580.777344 780.828125 594.777344 780.828125 605.316406 L 780.828125 706.847656 C 780.828125 717.390625 787.5625 720.628906 795.792969 714.042969 L 835.539062 682.253906 C 843.773438 675.667969 857.140625 664.996094 865.25 658.535156 C 873.363281 652.070312 879.996094 638.160156 879.996094 627.621094 L 879.996094 526.101562 C 879.996094 515.5625 873.261719 512.324219 865.03125 518.910156 Z M 848.925781 685.40625 C 840.691406 691.992188 833.953125 697.371094 833.945312 697.363281 C 833.9375 697.355469 827.191406 702.730469 818.953125 709.308594 L 744.054688 769.140625 C 735.820312 775.71875 729.082031 789.722656 729.082031 800.265625 L 729.082031 901.804688 C 729.082031 912.347656 735.816406 915.585938 744.046875 909 L 787.445312 874.289062 C 795.675781 867.703125 809.152344 856.9375 817.394531 850.363281 L 865.015625 812.367188 C 873.257812 805.792969 879.996094 791.789062 879.996094 781.25 L 879.996094 679.722656 C 879.996094 669.179688 873.261719 665.941406 865.03125 672.527344 Z M 848.925781 685.40625 " fill-opacity="1" fill-rule="nonzero"/></g><g clip-path="url(#1a2bd0a9e9)"><path fill="#cbced1" d="M 634.96875 673.21875 C 626.738281 679.804688 620.003906 676.566406 620.003906 666.027344 L 620.003906 564.449219 C 620.003906 553.910156 626.742188 539.90625 634.980469 533.332031 L 745.191406 445.375 C 753.429688 438.796875 760.171875 433.421875 760.175781 433.425781 C 760.175781 433.425781 766.910156 428.042969 775.140625 421.457031 L 809.128906 394.269531 C 817.363281 387.683594 824.097656 390.921875 824.097656 401.460938 L 824.097656 503 C 824.097656 513.539062 817.359375 527.546875 809.121094 534.125 L 696.207031 624.324219 C 687.972656 630.902344 681.226562 636.277344 681.21875 636.265625 C 681.207031 636.253906 674.464844 641.628906 666.234375 648.214844 Z M 672.003906 951.464844 C 680.234375 944.878906 693.714844 934.117188 701.960938 927.550781 L 704.183594 925.78125 C 712.425781 919.214844 719.171875 905.214844 719.171875 894.675781 L 719.171875 793.144531 C 719.171875 782.601562 712.4375 779.363281 704.207031 785.949219 L 664.460938 817.738281 C 656.226562 824.324219 642.859375 834.996094 634.746094 841.457031 C 626.636719 847.921875 620.003906 861.832031 620.003906 872.371094 L 620.003906 973.890625 C 620.003906 984.429688 626.738281 987.667969 634.96875 981.085938 Z M 651.074219 814.585938 C 659.308594 808 666.046875 802.621094 666.054688 802.628906 C 666.0625 802.636719 672.808594 797.261719 681.046875 790.683594 L 755.945312 730.855469 C 764.179688 724.273438 770.917969 710.269531 770.917969 699.726562 L 770.917969 598.1875 C 770.917969 587.644531 764.183594 584.40625 755.953125 590.992188 L 712.554688 625.703125 C 704.324219 632.289062 690.847656 643.054688 682.605469 649.628906 L 634.984375 687.625 C 626.742188 694.199219 620.003906 708.203125 620.003906 718.746094 L 620.003906 820.269531 C 620.003906 830.8125 626.738281 834.050781 634.96875 827.464844 Z M 651.074219 814.585938 " fill-opacity="1" fill-rule="nonzero"/></g></svg>